<svg id="imagoTipo" xmlns="http://www.w3.org/2000/svg" viewBox="0 0 338.48 328.79"><defs><style>.cls-1{fill:#fff;}.cls-2{fill:#e94639;}</style></defs><title>imagoTipo2</title><ellipse class="cls-1" cx="169.24" cy="164.4" rx="169.24" ry="164.39"/><path class="cls-2" d="M128.87,101.76c0,27.7-21.49,50.16-48,50.16s-48-22.46-48-50.16,21.49-50.15,48-50.15S128.87,74.06,128.87,101.76Z" transform="translate(89.37 80.31)"/><path class="cls-2" d="M139.34,83.38c0,11.53-8.92,20.88-19.92,20.88S99.5,94.91,99.5,83.38s8.91-20.89,19.92-20.89S139.34,71.85,139.34,83.38Z" transform="translate(89.37 80.31)"/><path class="cls-2" d="M64.5,83.38c0,11.53-8.92,20.88-19.93,20.88S24.65,94.91,24.65,83.38s8.92-20.89,19.92-20.89S64.5,71.85,64.5,83.38Z" transform="translate(89.37 80.31)"/><path class="cls-2" d="M104.25,146.41c0,11.54-10,20.88-22.38,20.88S59.5,158,59.5,146.41s10-20.88,22.37-20.88S104.25,134.88,104.25,146.41Z" transform="translate(89.37 80.31)"/><ellipse class="cls-1" cx="253.36" cy="228.85" rx="59.71" ry="57.95"/><path class="cls-1" d="M59.71,148.53c0,32-26.73,57.95-59.71,57.95s-59.71-25.95-59.71-57.95S-33,90.59,0,90.59,59.71,116.53,59.71,148.53Z" transform="translate(89.37 80.31)"/><ellipse class="cls-1" cx="171.14" cy="95.91" rx="60.94" ry="55.58"/><path class="cls-2" d="M101.7,33.45a19.93,19.93,0,1,1-19.92-20A20,20,0,0,1,101.7,33.45Z" transform="translate(89.37 80.31)"/></svg>