<svg id="Diseño_3" data-name="Diseño 3" xmlns="http://www.w3.org/2000/svg" viewBox="0 0 338.48 328.79"><defs><style>.cls-1{fill:#e94639;}.cls-2{fill:#fff;}</style></defs><title>logo</title><ellipse class="cls-1" cx="169.24" cy="164.4" rx="169.24" ry="164.39"/><path class="cls-2" d="M447.84,311.7c0,27.7-21.49,50.15-48,50.15s-48-22.45-48-50.15,21.5-50.15,48-50.15S447.84,284,447.84,311.7Z" transform="translate(-229.61 -129.62)"/><path class="cls-2" d="M458.32,293.31c0,11.54-8.92,20.89-19.93,20.89s-19.92-9.35-19.92-20.89,8.92-20.88,19.92-20.88S458.32,281.78,458.32,293.31Z" transform="translate(-229.61 -129.62)"/><path class="cls-2" d="M383.47,293.31c0,11.54-8.92,20.89-19.92,20.89s-19.92-9.35-19.92-20.89,8.91-20.88,19.92-20.88S383.47,281.78,383.47,293.31Z" transform="translate(-229.61 -129.62)"/><path class="cls-2" d="M423.23,356.35c0,11.53-10,20.88-22.38,20.88s-22.38-9.35-22.38-20.88,10-20.89,22.38-20.89S423.23,344.81,423.23,356.35Z" transform="translate(-229.61 -129.62)"/><ellipse class="cls-1" cx="253.36" cy="228.85" rx="59.71" ry="57.95"/><path class="cls-1" d="M378.68,358.47c0,32-26.73,57.95-59.71,57.95s-59.7-25.95-59.7-57.95,26.73-58,59.7-58S378.68,326.47,378.68,358.47Z" transform="translate(-229.61 -129.62)"/><ellipse class="cls-1" cx="171.14" cy="95.91" rx="60.94" ry="55.58"/><path class="cls-2" d="M420.68,243.38a19.93,19.93,0,1,1-19.93-20A20,20,0,0,1,420.68,243.38Z" transform="translate(-229.61 -129.62)"/></svg>